<?xml version="1.0" encoding="utf-8"?>
<!-- Generator: Adobe Illustrator 19.2.0, SVG Export Plug-In . SVG Version: 6.00 Build 0)  -->
<svg version="1.1" id="Слой_1" xmlns="http://www.w3.org/2000/svg" xmlns:xlink="http://www.w3.org/1999/xlink" x="0px" y="0px"
	 viewBox="0 0 121 141.4" style="enable-background:new 0 0 121 141.4;" xml:space="preserve">
<style type="text/css">
	.st0{clip-path:url(#SVGID_2_);fill:#F6E735;}
</style>
<g>
	<defs>
		<rect id="SVGID_1_" width="121" height="141.4"/>
	</defs>
	<clipPath id="SVGID_2_">
		<use xlink:href="#SVGID_1_"  style="overflow:visible;"/>
	</clipPath>
	<path class="st0" d="M117.1,69.6c-2.2,0-3.9,1.7-3.9,3.9v60.1H77.7V96.1c0-2.2-1.7-3.9-3.9-3.9H47.2c-2.2,0-3.9,1.7-3.9,3.9v30.1
		c0,2.2,1.7,3.9,3.9,3.9c2.2,0,3.9-1.8,3.9-3.9V100h18.8v33.6H7.8V51.1L60.5,8.9l54.1,43.4c0.8,0.7,1.8,0.9,2.9,0.8
		c1-0.1,2-0.6,2.6-1.4c1.3-1.7,1.1-4.1-0.6-5.5L62.9,0.8c-1.4-1.1-3.5-1.1-4.9,0L1.5,46.2c-0.9,0.7-1.5,1.9-1.5,3v88.2
		c0,2.1,1.7,3.9,3.9,3.9h113.2c2.1,0,3.9-1.7,3.9-3.9v-64C121,71.4,119.2,69.6,117.1,69.6"/>
</g>
</svg>
