<?xml version="1.0" encoding="UTF-8" standalone="no"?><svg xmlns="http://www.w3.org/2000/svg" xmlns:xlink="http://www.w3.org/1999/xlink"><symbol viewBox="0 0 15.943 17.998" id="calendar" xmlns="http://www.w3.org/2000/svg"><path d="M10.962 12.945h2v2h-2zm0-4.008h2v2h-2zM11.904 0v2.187h1.5V0h-1.5zM6.971 12.979h2v2h-2zm0-4.042h2v2h-2zM3.005 12.98h2v2h-2zM2.994 8.97h2v2h-2zm9.961-4.246L2.897 4.79l.014 2.1 10.058-.067-.014-2.1zM2.845.07v2.188h1.5V.07h-1.5zM0 1.877v16.121h15.943V1.877H0zm1.3 1.299h13.343v13.521H1.3V3.176z"/></symbol><symbol viewBox="0 0 11.996 7.684" id="check" xmlns="http://www.w3.org/2000/svg"><path style="line-height:normal;text-indent:0;text-align:start;text-decoration-line:none;text-decoration-style:solid;text-decoration-color:#000;text-transform:none;block-progression:tb;white-space:normal;isolation:auto;mix-blend-mode:normal;solid-color:#000;solid-opacity:1" d="M11.488 0a.5.5 0 0 0-.345.145L4.449 6.63.852 3.175a.5.5 0 1 0-.694.72l3.948 3.79.693-.003L11.838.864a.5.5 0 0 0-.35-.863z" color="#000" font-weight="400" font-family="sans-serif" overflow="visible" fill-rule="evenodd"/></symbol><symbol id="house" viewBox="0 0 121 141.4" xml:space="preserve" xmlns="http://www.w3.org/2000/svg"><style>.cst0{clip-path:url(#cSVGID_2_);fill:#f6e735}</style><defs><path id="cSVGID_1_" d="M0 0h121v141.4H0z"/></defs><clipPath id="cSVGID_2_"><use xlink:href="#cSVGID_1_" overflow="visible"/></clipPath><path class="cst0" d="M117.1 69.6c-2.2 0-3.9 1.7-3.9 3.9v60.1H77.7V96.1c0-2.2-1.7-3.9-3.9-3.9H47.2c-2.2 0-3.9 1.7-3.9 3.9v30.1c0 2.2 1.7 3.9 3.9 3.9s3.9-1.8 3.9-3.9V100h18.8v33.6H7.8V51.1L60.5 8.9l54.1 43.4c.8.7 1.8.9 2.9.8 1-.1 2-.6 2.6-1.4 1.3-1.7 1.1-4.1-.6-5.5L62.9.8C61.5-.3 59.4-.3 58 .8L1.5 46.2c-.9.7-1.5 1.9-1.5 3v88.2c0 2.1 1.7 3.9 3.9 3.9h113.2c2.1 0 3.9-1.7 3.9-3.9v-64c0-2-1.8-3.8-3.9-3.8"/></symbol><symbol viewBox="0 0 370.898 370.898" id="lounge" xmlns="http://www.w3.org/2000/svg"><path d="M355.079 129.226L189.488 0 15.82 129.226h160.19v160H92.19l-47.236-94.472-17.889 8.943 48.944 97.889v67.64h20v-60h80v61.673h20v-61.673h100v60h20v-80h-120v-160h159.07zM189.199 25.145l107.743 84.081H76.201l112.998-84.081z"/></symbol></svg>